<svg width="250" height="147" viewBox="0 0 250 147" xmlns="http://www.w3.org/2000/svg" xmlns:xlink="http://www.w3.org/1999/xlink"><title>Gauge</title><defs><path id="a" d="M0 .359v108.605h79.582V.359H0z"/></defs><g fill="none" fill-rule="evenodd"><path d="M249.1 127.736c0-.185.006-.375.006-.56 0-46.016-24.974-86.29-62.052-107.941L169.711 49.35c26.708 15.632 44.713 44.653 44.713 77.827 0 .184-.018.368-.018.559H249.1z" fill="#4FE899"/><path d="M61.927 19.31l17.344 30.115c13.311-7.812 28.78-12.315 45.284-12.315 16.504 0 31.972 4.503 45.277 12.315l17.35-30.114c-18.41-10.78-39.81-16.965-62.627-16.965S80.337 8.53 61.927 19.31" fill="#F5A623"/><g transform="translate(0 18.771)"><mask id="b" fill="#fff"><use xlink:href="#a"/></mask><path d="M34.684 108.405c0-33.247 18.086-62.33 44.898-77.931L62.238.359C25.056 21.979-.003 62.314-.003 108.405c0 .184.012.375.012.559h34.688c0-.184-.013-.369-.013-.56" fill="#FF3F00" mask="url(#b)"/></g><path fill="#474747" d="M143.138 128.11l-18.336 18.378-18.337-18.378L124.802.065z"/></g></svg>