<?xml version="1.0" encoding="UTF-8" standalone="no"?>
<svg width="250px" height="147px" viewBox="0 0 250 147" version="1.1" xmlns="http://www.w3.org/2000/svg" xmlns:xlink="http://www.w3.org/1999/xlink">
    <!-- Generator: Sketch 41.2 (35397) - http://www.bohemiancoding.com/sketch -->
    <title>Gauge</title>
    <desc>Created with Sketch.</desc>
    <defs>
        <polygon id="path-1" points="0 0.358629442 0 108.963807 79.5818064 108.963807 79.5818064 0.358629442 1.66113679e-19 0.358629442"></polygon>
    </defs>
    <g id="section-periscope" stroke="none" stroke-width="1" fill="none" fill-rule="evenodd">
        <g id="modal-freshgauge-lg" transform="translate(-595.000000, -128.000000)">
            <g id="Gauge" transform="translate(595.000000, 127.000000)">
                <g id="Group-8" transform="translate(0.000000, 2.613949)">
                    <path d="M249.099542,126.121782 C249.099542,125.937518 249.10567,125.747112 249.10567,125.562848 C249.10567,79.5459949 224.13198,39.2720355 187.054476,17.6210203 L169.710784,47.7358934 C196.418844,63.3676193 214.424415,92.3891929 214.424415,125.562848 C214.424415,125.747112 214.406029,125.931376 214.406029,126.121782 L249.099542,126.121782 Z" id="Fill-1" fill="#4FE899"></path>
                    <path d="M61.9273988,17.6965685 L79.2710908,47.8114416 C92.5822211,39.9986497 108.050588,35.496467 124.554674,35.496467 C141.058759,35.496467 156.527126,39.9986497 169.832128,47.8114416 L187.181949,17.6965685 C168.771896,6.9171269 147.371128,0.732 124.554674,0.732 C101.73822,0.732 80.337452,6.9171269 61.9273988,17.6965685" id="Fill-3" fill="#F5A623"></path>
                    <g id="Group-7" transform="translate(0.000000, 17.157360)">
                        <mask id="mask-2" fill="white">
                            <use xlink:href="#path-1"></use>
                        </mask>
                        <g id="Clip-6"></g>
                        <path d="M34.6843197,108.404873 C34.6843197,75.1575127 52.7695617,46.0745178 79.5818064,30.4735025 L62.2381144,0.358629442 C25.0564257,21.978934 -0.00306425653,62.3143147 -0.00306425653,108.404873 C-0.00306425653,108.589137 0.00919276959,108.779543 0.00919276959,108.963807 L34.6965767,108.963807 C34.6965767,108.779543 34.6843197,108.595279 34.6843197,108.404873" id="Fill-5" fill="#FF3F00" mask="url(#mask-2)"></path>
                    </g>
                </g>
                <polygon id="Fill-9" fill="#474747" points="143.138164 129.110401 124.801653 147.48766 106.465142 129.110401 124.801653 1.06537563"></polygon>
            </g>
        </g>
    </g>
</svg>